<?xml version="1.0" encoding="UTF-8"?>
<svg xmlns="http://www.w3.org/2000/svg" version="1.1" xmlns:xlink="http://www.w3.org/1999/xlink" viewBox="0 0 400 100">
  <defs>
    <style>
      .cls-1 {
        fill: #1d1d1b;
      }

      .cls-2 {
        fill: #fff;
      }

      .cls-3 {
        mask: url(#mask);
      }

      .cls-4 {
        display: none;
      }
    </style>
    <mask id="mask" x="27.7" y="-8242" width="29.2" height="32766" maskUnits="userSpaceOnUse"/>
  </defs>
  <!-- Generator: Adobe Illustrator 28.7.1, SVG Export Plug-In . SVG Version: 1.2.0 Build 142)  -->
  <g>
    <g id="_Слой_1" data-name="Слой_1">
      <g class="cls-4">
        <path class="cls-1" d="M22.3,13.7h8.8v62.7h-8.8V13.7ZM28.3,68.1h14.2c4.6,0,8.2-1.2,10.8-3.6,2.5-2.4,3.8-5.8,3.8-10.2v-18.5c0-4.4-1.3-7.8-3.8-10.2-2.5-2.4-6.1-3.6-10.8-3.6h-14.2v-8.4h13.9c5,0,9.3.9,12.9,2.6,3.6,1.8,6.3,4.3,8.2,7.7,1.9,3.4,2.8,7.4,2.8,12.2v17.8c0,4.7-.9,8.8-2.8,12.2-1.9,3.4-4.6,5.9-8.2,7.7-3.6,1.8-7.9,2.6-12.9,2.6h-13.9v-8.4Z"/>
        <path class="cls-1" d="M87.2,74.7c-2.9-1.6-5.2-3.8-6.7-6.8-1.5-3-2.3-6.6-2.3-10.9v-5c0-4.4.7-8.2,2.2-11.3,1.5-3.1,3.6-5.5,6.5-7.2,2.8-1.6,6.2-2.5,10.2-2.5s6.9.9,9.6,2.8c2.6,1.9,4.7,4.6,6.1,8.1,1.4,3.5,2.1,7.8,2.1,12.7v2.9h-30.2v-7.1h21.8c-.3-3.7-1.2-6.5-2.8-8.5-1.6-2-3.8-3-6.5-3s-5.9,1.1-7.7,3.3c-1.8,2.2-2.7,5.3-2.7,9.3v5.7c0,3.7,1,6.6,2.9,8.5,2,2,4.7,3,8.3,3s3.6-.4,5.3-1.1c1.8-.7,3.3-1.7,4.7-3l5.8,5.8c-2.2,2.1-4.7,3.8-7.5,4.9-2.8,1.2-5.5,1.7-8.3,1.7-4.1,0-7.7-.8-10.6-2.3Z"/>
        <path class="cls-1" d="M151.5,31.6h9.2l-16.8,44.8h-6.6l-16.8-44.8h9.2l11,32,11-32Z"/>
        <path class="cls-1" d="M180.1,74.2c-3.3-1.9-5.8-4.7-7.7-8.2-1.8-3.5-2.7-7.6-2.7-12.3v-17.2c0-4.7.9-8.8,2.7-12.3,1.8-3.5,4.4-6.3,7.7-8.2,3.3-1.9,7.1-2.9,11.5-2.9s6.9.8,9.9,2.3c3,1.5,5.5,3.7,7.6,6.5,2,2.8,3.4,6.1,4.1,9.8h-9c-.5-2-1.5-3.7-2.7-5.2-1.3-1.5-2.8-2.7-4.5-3.6-1.7-.8-3.5-1.3-5.4-1.3s-4.8.6-6.7,1.9c-1.9,1.2-3.4,3-4.5,5.2-1.1,2.2-1.6,4.8-1.6,7.8v17.2c0,2.9.5,5.5,1.6,7.8,1.1,2.2,2.6,4,4.5,5.2,1.9,1.2,4.2,1.8,6.7,1.8s3.7-.4,5.4-1.2c1.7-.8,3.2-1.9,4.5-3.5,1.3-1.5,2.2-3.3,2.7-5.4h9c-.7,3.7-2.1,7-4.1,9.8-2,2.8-4.6,5-7.6,6.5-3,1.5-6.3,2.3-9.9,2.3s-8.2-1-11.5-2.9Z"/>
        <path class="cls-1" d="M226.8,73.6c-2.7-2.3-4.1-5.8-4.1-10.4s1.3-7.8,3.8-10c2.5-2.2,6.3-3.3,11.3-3.3h12.7l.6,7.1h-13.3c-2.3,0-4,.5-5.2,1.5-1.1,1-1.7,2.6-1.7,4.7s.8,4,2.3,5c1.5,1.1,3.8,1.6,6.9,1.6s5.9-.4,7.5-1.1c1.7-.7,2.5-1.8,2.5-3.4l.9,6.3c-.8,1.2-1.7,2.2-2.9,3-1.1.8-2.5,1.4-3.9,1.7-1.5.4-3.2.6-5,.6-5.5,0-9.7-1.1-12.4-3.4ZM250.1,48c0-2.9-.8-5.2-2.4-6.8-1.6-1.6-3.8-2.4-6.7-2.4s-3.5.3-5.2.8c-1.7.5-3.2,1.3-4.6,2.3l-6.4-4.4c1.7-2,3.9-3.6,6.7-4.8,2.8-1.1,5.9-1.7,9.3-1.7s6.9.7,9.5,2c2.6,1.3,4.7,3.2,6,5.7,1.4,2.5,2.1,5.5,2.1,9v28.8h-8.4v-28.4Z"/>
        <path class="cls-1" d="M271.9,31.6h8.8v44.8h-8.8V31.6ZM298.6,49.3c0-3.2-.8-5.6-2.3-7.3s-3.8-2.6-6.6-2.6-5.1.8-6.7,2.3c-1.6,1.5-2.4,3.7-2.4,6.4l-.9-8.6c1.4-2.7,3.2-4.8,5.4-6.3,2.2-1.5,4.7-2.2,7.4-2.2s5.8.7,8,2.1c2.2,1.4,3.9,3.5,5.1,6.2s1.7,6,1.7,9.9v27.2h-8.8v-27.1ZM325.4,49.3c0-3.2-.8-5.6-2.5-7.3s-3.9-2.6-6.9-2.6-4.8.8-6.3,2.5c-1.5,1.7-2.2,4-2.2,7.1l-1.8-8.6c1.4-3,3.3-5.3,5.6-6.9,2.3-1.6,4.9-2.4,7.7-2.4s6,.7,8.3,2.1,4,3.5,5.2,6.2c1.2,2.7,1.8,6,1.8,9.9v27.2h-8.8v-27.1Z"/>
        <path class="cls-1" d="M347.6,31.6h8.8v63h-8.8V31.6ZM360.3,75.1c-2.1-1.3-3.6-3.2-4.6-5.7l.6-9.4c0,1.9.3,3.6,1,4.9.7,1.4,1.7,2.4,3,3.1,1.3.7,2.9,1.1,4.8,1.1,2.9,0,5.2-.9,6.8-2.7,1.6-1.8,2.4-4.3,2.4-7.5v-9.7c0-3.3-.8-5.8-2.4-7.6-1.6-1.8-3.8-2.7-6.8-2.7s-3.5.3-4.8,1c-1.3.7-2.3,1.7-3,3s-1,2.9-1,4.8l-.9-8.6c1.4-2.6,3.1-4.6,5.3-6.1,2.2-1.4,4.6-2.1,7.3-2.1s5.9.7,8.1,2.1c2.3,1.4,4,3.5,5.2,6.2s1.8,6,1.8,9.9v9.8c0,3.8-.6,7-1.8,9.8s-3,4.8-5.3,6.2c-2.3,1.4-5.1,2.1-8.4,2.1s-5.2-.7-7.3-2Z"/>
      </g>
      <polygon class="cls-2" points="215.9 30.8 192.1 9.4 168.1 32.2 168.1 57.7 192.3 80.3 218.2 58 206.3 57.8 192.9 69.2 178.5 57.7 178.9 32.2 192.3 19.8 206 30.8 215.9 30.8"/>
      <polygon class="cls-2" points="224.9 37.5 240.8 31 252.1 34.9 258.3 44.8 258.5 76.4 250.1 76.4 249.9 73.4 238 77 226.1 73.3 222.7 63.2 228.7 52.5 243.2 52.4 251.3 56.3 246 39.3 231.3 41.9 224.9 37.5"/>
      <polygon class="cls-2" points="271.9 76.4 271.9 31.6 280.7 31.6 280.7 37.6 285.8 32.7 292.6 31 300.6 33.1 305.7 39.4 311.2 33.4 318.9 31 328.7 33.3 333.2 41.9 334.2 76.4 325.1 76.4 325 46.9 318.7 39.5 307.8 46.1 307.9 76.4 297.8 76.4 298.3 46.4 292.7 39.4 280.8 50.1 280.7 76.4 271.9 76.4"/>
      <polygon class="cls-2" points="347.6 94.6 347.6 31.6 356.4 31.6 356.4 37.6 368.1 31 378.8 35.3 383.1 52.7 382.5 66.3 376 74.9 363.2 75.3 356.3 71.6 356.4 94.6 347.6 94.6"/>
      <polygon class="cls-2" points="120.4 31.6 137.2 76.4 143.8 76.4 160.7 31.6 151.8 31.6 140.5 62.7 129.6 31.6 120.4 31.6"/>
      <polygon class="cls-2" points="78.2 57 78.2 46.6 83 36.8 89.5 34.1 97 31 111.6 38.5 114.8 48.9 114.8 57.6 86.8 57.6 90 66.5 97.8 68.7 107.8 64.6 113.6 70.4 106.1 75.3 97.8 77.1 90.2 76.4 83.6 72.5 79.5 67.4 78.2 57"/>
      <polygon class="cls-2" points="22.3 12.4 59.5 16.7 67.4 45 53.9 75.6 22.3 77.3 22.3 12.4"/>
      <g class="cls-3">
        <polygon points="27.7 19.2 56.9 29.8 56.1 61.6 27.7 71.4 27.7 19.2"/>
      </g>
    </g>
  </g>
</svg>