<svg width="90" height="90" viewBox="0 0 90 90" fill="none" xmlns="http://www.w3.org/2000/svg">
<circle cx="45" cy="45" r="45" fill="none"/>
<path d="M60 32.9C59.85 32.875 59.675 32.875 59.525 32.9C56.075 32.775 53.325 29.95 53.325 26.45C53.325 22.875 56.2 20 59.775 20C63.35 20 66.225 22.9 66.225 26.45C66.2 29.95 63.45 32.775 60 32.9Z" stroke="red" stroke-width="3.75" stroke-linecap="round" stroke-linejoin="round"/>
<path d="M57.4247 51.0998C60.8497 51.6748 64.6247 51.0748 67.2747 49.2998C70.7997 46.9498 70.7997 43.0998 67.2747 40.7498C64.5997 38.9749 60.7747 38.3749 57.3497 38.9749" stroke="red" stroke-width="3.75" stroke-linecap="round" stroke-linejoin="round"/>
<path d="M29.925 32.9C30.075 32.875 30.25 32.875 30.4 32.9C33.85 32.775 36.6 29.95 36.6 26.45C36.6 22.875 33.725 20 30.15 20C26.575 20 23.7 22.9 23.7 26.45C23.725 29.95 26.475 32.775 29.925 32.9Z" stroke="red" stroke-width="3.75" stroke-linecap="round" stroke-linejoin="round"/>
<path d="M32.4999 51.0998C29.0749 51.6748 25.2999 51.0748 22.6499 49.2998C19.1249 46.9498 19.1249 43.0998 22.6499 40.7498C25.3249 38.9749 29.1499 38.3749 32.5749 38.9749" stroke="red" stroke-width="3.75" stroke-linecap="round" stroke-linejoin="round"/>
<path d="M45 51.5749C44.85 51.5499 44.675 51.5499 44.525 51.5749C41.075 51.4499 38.3249 48.6249 38.3249 45.1249C38.3249 41.5499 41.2 38.6748 44.775 38.6748C48.35 38.6748 51.225 41.5749 51.225 45.1249C51.2 48.6249 48.45 51.4749 45 51.5749Z" stroke="red" stroke-width="3.75" stroke-linecap="round" stroke-linejoin="round"/>
<path d="M37.7249 59.4499C34.1999 61.7999 34.1999 65.6499 37.7249 67.9999C41.725 70.6749 48.275 70.6749 52.275 67.9999C55.8 65.6499 55.8 61.7999 52.275 59.4499C48.3 56.7999 41.725 56.7999 37.7249 59.4499Z" stroke="red" stroke-width="3.75" stroke-linecap="round" stroke-linejoin="round"/>
</svg>
