<svg width="90" height="90" viewBox="0 0 90 90" fill="none" xmlns="http://www.w3.org/2000/svg">
<circle cx="45" cy="45" r="45" fill="none"/>
<path d="M56.59 47.9663L61.64 76.3863C61.6966 76.721 61.6496 77.0649 61.5054 77.3721C61.3612 77.6794 61.1267 77.9353 60.8331 78.1056C60.5395 78.276 60.201 78.3526 59.8627 78.3253C59.5244 78.2981 59.2025 78.1681 58.94 77.953L47.0067 68.9963C46.4306 68.5659 45.7308 68.3334 45.0117 68.3334C44.2926 68.3334 43.5928 68.5659 43.0167 68.9963L31.0633 77.9496C30.8011 78.1644 30.4795 78.2941 30.1417 78.3214C29.8038 78.3488 29.4656 78.2724 29.1722 78.1025C28.8788 77.9327 28.6443 77.6774 28.4997 77.3708C28.3552 77.0641 28.3076 76.7207 28.3633 76.3863L33.41 47.9663" stroke="red" stroke-width="4" stroke-linecap="round" stroke-linejoin="round"/>
<path d="M45 51.6665C56.0457 51.6665 65 42.7122 65 31.6665C65 20.6208 56.0457 11.6665 45 11.6665C33.9543 11.6665 25 20.6208 25 31.6665C25 42.7122 33.9543 51.6665 45 51.6665Z" stroke="red" stroke-width="4" stroke-linecap="round" stroke-linejoin="round"/>
</svg>
