<svg width="90" height="90" viewBox="0 0 90 90" fill="none" xmlns="http://www.w3.org/2000/svg">
<g clip-path="url(#clip0_2014_203)">
<circle cx="45" cy="45" r="45" fill="none"/>
<path d="M45 51.4081C48.539 51.4081 51.4079 48.5392 51.4079 45.0002C51.4079 41.4612 48.539 38.5923 45 38.5923C41.461 38.5923 38.5921 41.4612 38.5921 45.0002C38.5921 48.5392 41.461 51.4081 45 51.4081Z" fill="red"/>
<path d="M73.1004 28.7736C71.0322 25.1942 66.0667 23.7236 59.1112 24.6216C58.2287 24.7366 57.3217 24.8951 56.4008 25.0815C53.775 17.6386 49.6859 12.9165 45 12.9165C40.3068 12.9165 36.2125 17.6544 33.5871 25.1181C25.6001 23.5353 19.2763 24.6611 16.8983 28.7736C14.5283 32.8775 16.6929 38.8931 22.0223 44.9998C16.6929 51.1066 14.5283 57.1222 16.8982 61.2261C18.594 64.1641 22.294 65.5877 27.1781 65.5877C29.3319 65.5582 31.4778 65.3208 33.586 64.8788C36.2113 72.3441 40.3062 77.0832 45 77.0832C49.6859 77.0832 53.7749 72.3611 56.4008 64.9182C57.3217 65.1045 58.2286 65.2631 59.1112 65.3781C60.3654 65.5441 61.6289 65.6299 62.8941 65.6348C67.8659 65.6348 71.4296 64.1173 73.1004 61.2262C75.4703 57.1224 73.3061 51.1067 67.9775 44.9999C73.3061 38.8931 75.4704 32.8775 73.1004 28.7736ZM59.5399 27.9069C60.6611 27.7565 61.7909 27.6781 62.9222 27.6722C66.5986 27.6722 69.1924 28.6296 70.2343 30.4319C71.705 32.9791 70.0405 37.5526 65.708 42.5879C63.6135 40.527 61.3699 38.6233 58.9956 36.8922C58.6781 34.0018 58.1448 31.1392 57.3999 28.3285C58.1116 28.1924 58.855 27.996 59.5399 27.9069ZM50.5788 54.6649C48.6933 55.7537 46.8336 56.7166 45.0169 57.5626C43.1521 56.6947 41.2801 55.7387 39.4198 54.6649C37.5272 53.5723 35.7587 52.4387 34.1127 51.284C33.931 49.2828 33.8301 47.1861 33.8301 44.9998C33.8301 42.8136 33.931 40.7168 34.1127 38.7157C35.7587 37.561 37.5272 36.4273 39.4198 35.3348C41.2715 34.2659 43.1351 33.3126 44.9913 32.4478C46.8192 33.2975 48.6812 34.2389 50.5789 35.3348C52.472 36.4277 54.2414 37.5615 55.8878 38.7169C56.0692 40.7177 56.1702 42.8141 56.1702 44.9998C56.1702 47.1855 56.0692 49.2819 55.8878 51.2828C54.2413 52.4381 52.472 53.5719 50.5788 54.6649ZM55.3272 55.6423C55.0395 57.4343 54.6585 59.2102 54.1857 60.9625C52.4471 60.4824 50.7337 59.9153 49.052 59.2633C50.1106 58.7175 51.1728 58.1452 52.237 57.5308C53.3 56.9173 54.3265 56.2852 55.3272 55.6423ZM40.9653 59.2698C39.2783 59.9214 37.5595 60.4874 35.8154 60.9657C35.342 59.212 34.9606 57.4348 34.6728 55.6413C35.674 56.2847 36.7011 56.9169 37.7645 57.5309C38.827 58.1446 39.8954 58.7183 40.9653 59.2698ZM30.6333 48.6467C29.2122 47.5013 27.8505 46.2841 26.5535 44.9998C27.8505 43.7155 29.2122 42.4982 30.6333 41.3527C30.5748 42.5495 30.5385 43.763 30.5385 44.9998C30.5385 46.2367 30.5748 47.4501 30.6333 48.6467ZM34.6729 34.3584C34.9603 32.5681 35.341 30.794 35.8133 29.0434C37.5611 29.5159 39.2835 30.0775 40.974 30.7258C39.9014 31.2784 38.8302 31.8533 37.7647 32.4688C36.7011 33.0828 35.6741 33.715 34.6729 34.3584ZM49.0537 30.7359C50.735 30.0842 52.4478 29.5173 54.1858 29.0373C54.6587 30.7896 55.0397 32.5655 55.3273 34.3575C54.3267 33.7146 53.3 33.0825 52.2372 32.4689C51.1735 31.8547 50.1119 31.2815 49.0537 30.7359ZM59.3668 41.354C60.7873 42.4992 62.1485 43.716 63.445 44.9998C62.1485 46.2837 60.7873 47.5006 59.3667 48.6457C59.4251 47.4495 59.4616 46.2365 59.4616 44.9998C59.4616 43.7632 59.4253 42.5501 59.3668 41.354ZM45 16.2081C47.91 16.2081 50.997 19.8082 53.1884 25.8635C50.3899 26.6493 47.6515 27.6351 44.9943 28.8135C42.3396 27.6385 39.6028 26.6583 36.8058 25.8805C38.9977 19.8147 42.0881 16.2081 45 16.2081ZM19.7642 30.4319C20.789 28.6578 23.4156 27.7066 27.1155 27.7066C28.961 27.7327 30.8001 27.9294 32.6094 28.2943C31.8596 31.1162 31.323 33.9905 31.0043 36.893C28.6296 38.624 26.3857 40.5277 24.2911 42.5889C19.9578 37.5534 18.2933 32.9793 19.7642 30.4319ZM19.7642 59.5678C18.2933 57.0203 19.9578 52.4463 24.2911 47.4108C26.3858 49.4718 28.6296 51.3756 31.0043 53.1067C31.3234 56.0146 31.8614 58.8943 32.6137 61.7213C26.0585 62.9723 21.2428 62.1278 19.7642 59.5678ZM45 73.7916C42.0872 73.7916 38.9961 70.1834 36.804 64.1148C39.605 63.3412 42.3458 62.3639 45.0043 61.1907C47.6584 62.367 50.3935 63.3513 53.1885 64.1359C50.9971 70.1913 47.9101 73.7916 45 73.7916ZM70.2343 59.5678C68.8951 61.88 65.0059 62.803 59.5398 62.0928C58.855 62.0036 58.1115 61.8073 57.3999 61.6712C58.1448 58.8604 58.6781 55.9977 58.9956 53.1073C61.37 51.3763 63.6135 49.4727 65.708 47.4119C70.0405 52.4471 71.7049 57.0205 70.2343 59.5678Z" fill="red"/>
</g>
<defs>
<clipPath id="clip0_2014_203">
<rect width="90" height="90" fill="white"/>
</clipPath>
</defs>
</svg>
